<svg width="1349" height="566" viewBox="0 0 1349 566" fill="none" xmlns="http://www.w3.org/2000/svg">
<path d="M-0.000219822 7.86781e-05H62.1415V426.306H109.583V7.86781e-05H171.725V482.1H-0.000219822V7.86781e-05ZM137.981 565.958V482.1H109.917V426.306H194.443V565.958H137.981ZM222.841 482.1V7.86781e-05H353.139V55.794H284.983V209.144H349.13V262.933H284.983V426.306H353.139V482.1H222.841ZM390.557 482.1V7.86781e-05H452.699V208.142H499.473V7.86781e-05H561.614V482.1H499.473V263.601H452.699V482.1H390.557ZM636.118 482.1V55.794H591.349V7.86781e-05H742.36V55.794H697.925V482.1H636.118ZM805.17 311.043V256.585H848.268C856.732 256.585 863.302 254.135 867.98 249.235C872.657 244.335 874.996 236.762 874.996 226.517V84.8603C874.996 74.392 872.657 66.8192 867.98 62.1418C863.302 57.2418 856.732 54.7917 848.268 54.7917H805.17V7.86781e-05H857.289C875.107 7.86781e-05 889.919 3.34103 901.723 10.0229C913.751 16.7049 922.883 26.505 929.119 39.4233C935.356 52.119 938.474 67.4874 938.474 85.5285V225.849C938.474 243.89 935.356 259.258 929.119 271.954C922.883 284.649 913.751 294.338 901.723 301.02C889.919 307.702 875.107 311.043 857.289 311.043H805.17ZM773.765 482.1V7.86781e-05H836.241V482.1H773.765ZM1043.05 7.86781e-05H1105.19V426.306H1152.63V7.86781e-05H1214.77V482.1H1043.05V7.86781e-05ZM1181.03 565.958V482.1H1152.96V426.306H1237.49V565.958H1181.03ZM1311.32 485.441C1300.86 485.441 1291.95 481.766 1284.6 474.416C1277.47 466.843 1273.91 457.711 1273.91 447.02C1273.91 436.329 1277.47 427.308 1284.6 419.958C1291.95 412.385 1300.86 408.599 1311.32 408.599C1322.02 408.599 1330.92 412.385 1338.05 419.958C1345.18 427.308 1348.74 436.329 1348.74 447.02C1348.74 457.711 1345.18 466.843 1338.05 474.416C1330.92 481.766 1322.02 485.441 1311.32 485.441Z" fill="white"/>
</svg>
